<svg width="151" height="123" viewBox="0 0 151 123" fill="none" xmlns="http://www.w3.org/2000/svg">
<path fill-rule="evenodd" clip-rule="evenodd" d="M63.9395 66.3562L62.5472 69.6044H33.8496L23.5629 89.5577H19.386L42.5909 44.5468H46.7678L35.5241 66.3562H63.9395Z" fill="#787878"/>
<path fill-rule="evenodd" clip-rule="evenodd" d="M138.659 0H142.836L119.631 45.0109H115.454L138.659 0Z" fill="#2E2F33"/>
<path fill-rule="evenodd" clip-rule="evenodd" d="M48.1601 0H67.6522L90.8572 45.0109H71.365L48.1601 0Z" fill="#787878"/>
<path fill-rule="evenodd" clip-rule="evenodd" d="M71.365 45.0108H90.8571L114.062 90.0217H94.5699L71.365 45.0108Z" fill="#2E2F33"/>
<path d="M2 118.662V107.694H5.64561C6.51067 107.694 7.2676 107.839 7.91639 108.127C8.57549 108.415 9.1213 108.807 9.55383 109.301C9.98636 109.795 10.3108 110.377 10.527 111.046C10.7433 111.706 10.8514 112.411 10.8514 113.163C10.8514 113.997 10.7278 114.754 10.4807 115.434C10.2438 116.103 9.89882 116.68 9.4457 117.164C8.99257 117.637 8.44161 118.008 7.79281 118.276C7.15432 118.533 6.43858 118.662 5.64561 118.662H2ZM10.0636 113.163C10.0636 112.473 9.96576 111.839 9.7701 111.263C9.57443 110.676 9.28607 110.171 8.90504 109.749C8.53429 109.327 8.07602 108.997 7.53021 108.76C6.9844 108.523 6.3562 108.405 5.64561 108.405H2.78782V117.951H5.64561C6.3665 117.951 6.99984 117.833 7.54565 117.596C8.10177 117.349 8.56519 117.009 8.93593 116.577C9.30667 116.144 9.58473 115.639 9.7701 115.063C9.96576 114.476 10.0636 113.842 10.0636 113.163Z" fill="black"/>
<path d="M20.3654 118.817C19.799 118.817 19.2738 118.708 18.7898 118.492C18.3057 118.266 17.8835 117.962 17.5231 117.581C17.1729 117.189 16.8949 116.741 16.6889 116.237C16.4932 115.732 16.3954 115.192 16.3954 114.615C16.3954 114.048 16.4932 113.518 16.6889 113.024C16.8949 112.519 17.1729 112.081 17.5231 111.711C17.8732 111.33 18.2851 111.031 18.7589 110.815C19.2429 110.598 19.7629 110.49 20.3191 110.49C20.8855 110.49 21.4107 110.604 21.8947 110.83C22.3787 111.046 22.7958 111.345 23.1459 111.726C23.4961 112.097 23.769 112.535 23.9647 113.039C24.1603 113.533 24.2582 114.059 24.2582 114.615C24.2582 114.666 24.2582 114.733 24.2582 114.816C24.2582 114.888 24.253 114.934 24.2427 114.955H17.1987C17.2296 115.418 17.3377 115.851 17.5231 116.252C17.7084 116.644 17.9401 116.983 18.2182 117.272C18.5065 117.56 18.8361 117.787 19.2068 117.951C19.5776 118.116 19.9741 118.199 20.3963 118.199C20.6743 118.199 20.9473 118.163 21.215 118.09C21.4828 118.008 21.7299 117.9 21.9565 117.766C22.1933 117.632 22.3993 117.473 22.5744 117.287C22.7598 117.092 22.9039 116.88 23.0069 116.654L23.6866 116.839C23.5733 117.128 23.4034 117.395 23.1768 117.643C22.9606 117.879 22.7031 118.085 22.4045 118.26C22.1161 118.435 21.7969 118.569 21.4467 118.662C21.0966 118.765 20.7361 118.817 20.3654 118.817ZM23.5167 114.337C23.4858 113.863 23.3777 113.431 23.1923 113.039C23.0172 112.648 22.7855 112.313 22.4972 112.035C22.2191 111.747 21.8947 111.525 21.524 111.371C21.1532 111.206 20.7567 111.124 20.3345 111.124C19.9123 111.124 19.5158 111.206 19.145 111.371C18.7743 111.525 18.4448 111.747 18.1564 112.035C17.8783 112.313 17.6518 112.653 17.4767 113.055C17.3119 113.446 17.2141 113.873 17.1832 114.337H23.5167Z" fill="black"/>
<path d="M32.6772 118.817C32.0593 118.817 31.4671 118.714 30.9007 118.508C30.3343 118.302 29.84 117.993 29.4178 117.581L29.8039 117.056C30.2365 117.447 30.6845 117.735 31.1479 117.921C31.6113 118.106 32.1211 118.199 32.6772 118.199C33.3775 118.199 33.9387 118.054 34.361 117.766C34.7935 117.467 35.0098 117.056 35.0098 116.53C35.0098 116.283 34.9531 116.077 34.8398 115.912C34.7368 115.737 34.5772 115.593 34.361 115.48C34.1447 115.356 33.8769 115.248 33.5577 115.155C33.2384 115.063 32.8677 114.965 32.4455 114.862C31.9923 114.759 31.5959 114.656 31.256 114.553C30.9265 114.45 30.6536 114.326 30.4373 114.182C30.221 114.038 30.0563 113.863 29.943 113.657C29.84 113.451 29.7885 113.188 29.7885 112.869C29.7885 112.468 29.8657 112.117 30.0202 111.819C30.1747 111.52 30.3858 111.273 30.6536 111.077C30.9316 110.882 31.2457 110.737 31.5959 110.645C31.9563 110.542 32.3373 110.49 32.739 110.49C33.3672 110.49 33.9233 110.598 34.4073 110.815C34.8913 111.021 35.2672 111.288 35.535 111.618L35.1024 112.035C34.8347 111.726 34.4845 111.494 34.052 111.34C33.6298 111.185 33.1766 111.108 32.6926 111.108C32.394 111.108 32.1108 111.139 31.843 111.201C31.5856 111.263 31.359 111.361 31.1633 111.494C30.9677 111.628 30.8132 111.803 30.6999 112.02C30.5866 112.226 30.53 112.473 30.53 112.761C30.53 112.998 30.566 113.188 30.6381 113.333C30.7205 113.477 30.8441 113.6 31.0088 113.703C31.1839 113.806 31.4053 113.899 31.6731 113.981C31.9408 114.054 32.2601 114.136 32.6308 114.229C33.1355 114.352 33.5834 114.471 33.9748 114.584C34.3661 114.697 34.6905 114.836 34.948 115.001C35.2157 115.166 35.4165 115.361 35.5504 115.588C35.6946 115.815 35.7667 116.103 35.7667 116.453C35.7667 117.174 35.4835 117.751 34.9171 118.183C34.361 118.605 33.6143 118.817 32.6772 118.817Z" fill="black"/>
<path d="M41.7363 118.662V110.629H42.5087V118.662H41.7363ZM41.7363 108.807V107.385H42.5087V108.807H41.7363Z" fill="black"/>
<path d="M52.3492 118.786C51.7931 118.786 51.2833 118.672 50.8199 118.446C50.3565 118.209 49.9549 117.9 49.615 117.519C49.2855 117.128 49.0229 116.685 48.8272 116.19C48.6418 115.696 48.5491 115.186 48.5491 114.661C48.5491 114.115 48.6367 113.59 48.8117 113.086C48.9971 112.581 49.2546 112.138 49.5841 111.757C49.9137 111.366 50.305 111.057 50.7581 110.83C51.2216 110.604 51.7313 110.49 52.2874 110.49C52.9877 110.49 53.5953 110.676 54.1102 111.046C54.6355 111.407 55.0783 111.85 55.4387 112.375V110.629H56.1493V118.817C56.1493 119.362 56.0463 119.841 55.8404 120.253C55.6344 120.665 55.3563 121.005 55.0062 121.273C54.6663 121.551 54.2647 121.757 53.8013 121.891C53.3482 122.035 52.8693 122.107 52.3647 122.107C51.9012 122.107 51.4842 122.061 51.1134 121.968C50.7427 121.885 50.4131 121.762 50.1248 121.597C49.8467 121.443 49.5944 121.247 49.3678 121.01C49.1516 120.784 48.9611 120.531 48.7963 120.253L49.3215 119.898C49.6408 120.444 50.0733 120.84 50.6191 121.087C51.1649 121.345 51.7468 121.474 52.3647 121.474C52.7766 121.474 53.1628 121.417 53.5232 121.304C53.894 121.19 54.2132 121.02 54.481 120.794C54.759 120.578 54.9753 120.305 55.1298 119.975C55.2945 119.646 55.3769 119.259 55.3769 118.817V117.056C55.0474 117.581 54.6097 118.003 54.0639 118.322C53.5181 118.631 52.9465 118.786 52.3492 118.786ZM52.5346 118.121C52.8744 118.121 53.204 118.06 53.5232 117.936C53.8528 117.802 54.1463 117.632 54.4037 117.426C54.6715 117.22 54.8878 116.989 55.0525 116.731C55.2276 116.474 55.3357 116.216 55.3769 115.959V113.317C55.2534 113.008 55.0886 112.725 54.8826 112.468C54.6766 112.2 54.4398 111.973 54.172 111.788C53.9146 111.603 53.6314 111.458 53.3224 111.355C53.0238 111.242 52.72 111.185 52.411 111.185C51.927 111.185 51.4945 111.288 51.1134 111.494C50.7324 111.7 50.408 111.968 50.1402 112.298C49.8828 112.627 49.6819 113.003 49.5378 113.425C49.4039 113.837 49.337 114.254 49.337 114.677C49.337 115.14 49.4193 115.578 49.5841 115.99C49.7489 116.402 49.9755 116.767 50.2638 117.086C50.5522 117.406 50.892 117.658 51.2833 117.843C51.6747 118.029 52.0918 118.121 52.5346 118.121Z" fill="black"/>
<path d="M69.2998 118.662H68.5275V114.182C68.5275 113.142 68.3781 112.385 68.0795 111.911C67.7911 111.438 67.3277 111.201 66.6892 111.201C66.3494 111.201 66.0095 111.263 65.6697 111.386C65.3401 111.51 65.0312 111.685 64.7428 111.911C64.4545 112.138 64.2022 112.406 63.9859 112.715C63.7696 113.013 63.61 113.338 63.507 113.688V118.662H62.7346V110.629H63.4607V112.545C63.6255 112.236 63.8263 111.958 64.0631 111.711C64.3103 111.453 64.5832 111.237 64.8818 111.062C65.1908 110.877 65.5152 110.737 65.855 110.645C66.1949 110.542 66.545 110.49 66.9055 110.49C67.7808 110.49 68.3987 110.799 68.7592 111.417C69.1196 112.025 69.2998 112.9 69.2998 114.043V118.662Z" fill="black"/>
<path d="M90.5557 109.517C89.8451 108.724 88.841 108.328 87.5435 108.328C86.4724 108.328 85.6898 108.534 85.1954 108.946C84.7114 109.347 84.4694 109.893 84.4694 110.583C84.4694 110.933 84.5312 111.227 84.6548 111.464C84.7784 111.69 84.9689 111.886 85.2263 112.051C85.4941 112.215 85.8288 112.354 86.2304 112.468C86.6321 112.581 87.1161 112.699 87.6825 112.823C88.2695 112.946 88.7999 113.086 89.2736 113.24C89.7576 113.384 90.1644 113.57 90.4939 113.796C90.8338 114.023 91.0912 114.301 91.2663 114.63C91.4517 114.96 91.5444 115.367 91.5444 115.851C91.5444 116.335 91.4465 116.757 91.2509 117.117C91.0655 117.478 90.7977 117.782 90.4476 118.029C90.1077 118.266 89.6958 118.446 89.2118 118.569C88.7381 118.693 88.2077 118.755 87.6207 118.755C85.9112 118.755 84.4643 118.209 83.2799 117.117L83.697 116.484C84.1605 116.968 84.7269 117.354 85.3963 117.643C86.0657 117.921 86.8174 118.06 87.6516 118.06C88.6093 118.06 89.356 117.885 89.8915 117.534C90.4373 117.184 90.7102 116.654 90.7102 115.943C90.7102 115.583 90.6381 115.279 90.4939 115.032C90.3498 114.774 90.1335 114.553 89.8451 114.368C89.5671 114.182 89.2118 114.023 88.7793 113.889C88.3467 113.755 87.8421 113.626 87.2654 113.503C86.6784 113.379 86.1583 113.25 85.7052 113.116C85.2624 112.972 84.8865 112.797 84.5775 112.591C84.2789 112.375 84.0523 112.117 83.8979 111.819C83.7434 111.52 83.6661 111.144 83.6661 110.691C83.6661 110.197 83.7588 109.759 83.9442 109.378C84.1399 108.997 84.4076 108.678 84.7475 108.42C85.0873 108.153 85.4941 107.952 85.9678 107.818C86.4415 107.684 86.9668 107.617 87.5435 107.617C88.254 107.617 88.8874 107.725 89.4435 107.941C89.9996 108.147 90.5042 108.467 90.9574 108.899L90.5557 109.517Z" fill="black"/>
<path d="M100.961 118.276C100.92 118.296 100.848 118.338 100.745 118.399C100.652 118.451 100.529 118.502 100.374 118.554C100.23 118.605 100.065 118.652 99.88 118.693C99.6946 118.734 99.4938 118.755 99.2775 118.755C99.0613 118.755 98.8553 118.724 98.6596 118.662C98.4743 118.6 98.3095 118.508 98.1653 118.384C98.0211 118.26 97.9078 118.111 97.8255 117.936C97.7431 117.761 97.7019 117.555 97.7019 117.318V111.263H96.5742V110.629H97.7019V107.88H98.4743V110.629H100.343V111.263H98.4743V117.133C98.4743 117.431 98.5773 117.658 98.7832 117.812C98.9892 117.957 99.2209 118.029 99.4784 118.029C99.7976 118.029 100.071 117.977 100.297 117.874C100.534 117.761 100.678 117.689 100.73 117.658L100.961 118.276Z" fill="black"/>
<path d="M108.983 118.817C107.274 118.817 106.419 117.632 106.419 115.264V110.629H107.191V115.155C107.191 117.133 107.866 118.121 109.215 118.121C109.555 118.121 109.884 118.065 110.204 117.951C110.523 117.828 110.822 117.663 111.1 117.457C111.378 117.241 111.62 116.983 111.826 116.685C112.042 116.386 112.212 116.057 112.335 115.696V110.629H113.108V117.581C113.108 117.838 113.216 117.967 113.432 117.967V118.662C113.381 118.672 113.334 118.678 113.293 118.678C113.252 118.678 113.221 118.678 113.201 118.678C112.995 118.678 112.809 118.616 112.644 118.492C112.49 118.358 112.413 118.183 112.413 117.967V116.762C112.063 117.411 111.579 117.915 110.961 118.276C110.353 118.636 109.694 118.817 108.983 118.817Z" fill="black"/>
<path d="M123.039 118.817C122.483 118.817 121.968 118.703 121.495 118.477C121.021 118.24 120.609 117.931 120.259 117.55C119.919 117.158 119.651 116.716 119.455 116.221C119.27 115.717 119.177 115.197 119.177 114.661C119.177 114.105 119.27 113.575 119.455 113.07C119.641 112.565 119.898 112.123 120.228 111.742C120.557 111.361 120.944 111.057 121.386 110.83C121.84 110.604 122.334 110.49 122.869 110.49C123.22 110.49 123.549 110.542 123.858 110.645C124.167 110.748 124.455 110.887 124.723 111.062C124.991 111.227 125.233 111.422 125.449 111.649C125.665 111.875 125.851 112.117 126.005 112.375V107.385H126.778V117.581C126.778 117.838 126.886 117.967 127.102 117.967V118.662C127.04 118.672 126.989 118.678 126.948 118.678C126.906 118.688 126.865 118.693 126.824 118.693C126.618 118.693 126.443 118.616 126.299 118.461C126.155 118.296 126.082 118.127 126.082 117.951V117.056C125.753 117.591 125.31 118.018 124.754 118.338C124.208 118.657 123.637 118.817 123.039 118.817ZM123.178 118.121C123.456 118.121 123.755 118.065 124.074 117.951C124.394 117.838 124.687 117.684 124.955 117.488C125.233 117.282 125.47 117.05 125.665 116.793C125.861 116.535 125.974 116.257 126.005 115.959V113.317C125.892 113.029 125.727 112.756 125.511 112.499C125.305 112.231 125.068 112.004 124.8 111.819C124.533 111.623 124.244 111.469 123.935 111.355C123.626 111.242 123.328 111.185 123.039 111.185C122.576 111.185 122.154 111.288 121.773 111.494C121.392 111.69 121.067 111.953 120.799 112.282C120.532 112.601 120.326 112.972 120.181 113.394C120.037 113.806 119.965 114.234 119.965 114.677C119.965 115.14 120.048 115.578 120.212 115.99C120.377 116.402 120.604 116.767 120.892 117.086C121.191 117.406 121.531 117.658 121.912 117.843C122.303 118.029 122.725 118.121 123.178 118.121Z" fill="black"/>
<path d="M133.408 118.662V110.629H134.181V118.662H133.408ZM133.408 108.807V107.385H134.181V108.807H133.408Z" fill="black"/>
<path d="M144.145 118.817C143.578 118.817 143.053 118.708 142.569 118.492C142.095 118.266 141.683 117.962 141.333 117.581C140.983 117.2 140.71 116.757 140.515 116.252C140.319 115.748 140.221 115.217 140.221 114.661C140.221 114.095 140.319 113.559 140.515 113.055C140.721 112.55 140.999 112.107 141.349 111.726C141.699 111.345 142.111 111.046 142.584 110.83C143.069 110.604 143.589 110.49 144.145 110.49C144.701 110.49 145.216 110.604 145.689 110.83C146.163 111.046 146.575 111.345 146.925 111.726C147.286 112.107 147.564 112.55 147.759 113.055C147.965 113.559 148.068 114.095 148.068 114.661C148.068 115.217 147.965 115.748 147.759 116.252C147.564 116.757 147.291 117.2 146.941 117.581C146.591 117.962 146.173 118.266 145.689 118.492C145.216 118.708 144.701 118.817 144.145 118.817ZM140.993 114.692C140.993 115.166 141.076 115.614 141.241 116.036C141.405 116.448 141.627 116.808 141.905 117.117C142.193 117.426 142.528 117.673 142.909 117.859C143.29 118.034 143.697 118.121 144.129 118.121C144.562 118.121 144.969 118.034 145.35 117.859C145.731 117.673 146.065 117.421 146.354 117.102C146.642 116.783 146.869 116.417 147.033 116.005C147.198 115.583 147.281 115.13 147.281 114.646C147.281 114.172 147.198 113.729 147.033 113.317C146.869 112.895 146.642 112.529 146.354 112.22C146.065 111.901 145.731 111.649 145.35 111.464C144.979 111.278 144.577 111.185 144.145 111.185C143.712 111.185 143.305 111.278 142.924 111.464C142.543 111.649 142.209 111.901 141.92 112.22C141.642 112.54 141.416 112.916 141.241 113.348C141.076 113.77 140.993 114.218 140.993 114.692Z" fill="black"/>
</svg>
